#!OML:ASF I:\Actors\actors\Patient Classification 2\Patient 1\Session 1\actor1.ASF
:FULLY-SPECIFIED
:DEGREES
105
root -0.600367 18.1998 5.49754 4.40886 -3.90809 -2.30453
lowerback -2.07269 1.76961 0.888835
upperback -3.69668 2.35328 -0.214591
thorax -2.58798 1.14944 -0.721995
lowerneck -10.1832 -3.07482 -1.66484
upperneck 22.4995 -5.15177 4.97522
head 8.88075 -2.0583 1.41587
rclavicle 2.06239e-015 0
rhumerus -54.1476 8.18146 -95.0568
rradius 53.4291
rwrist 3.71647
rhand 0.697512 -44.4622
rfingers 7.12502
rthumb 26.2583 -72.6653
lclavicle 2.06239e-015 0
lhumerus -45.7058 -5.26099 91.5001
lradius 55.4943
lwrist 30.193
lhand -15.8018 -22.4903
lfingers 7.12502
lthumb 10.3914 7.23293
rfemur 6.15546 3.4762 15.8112
rtibia -7.90799
rfoot -11.013 -11.7858
rtoes 2.74198
lfemur 9.69985 -9.59875 -12.5539
ltibia -9.97104
lfoot -9.67885 21.1409
ltoes -8.81142
106
root -0.602685 18.2012 5.48865 4.42587 -3.916 -2.37414
lowerback -1.96997 1.84054 0.887133
upperback -3.71059 2.44868 -0.238236
thorax -2.65737 1.19636 -0.749352
lowerneck -10.1619 -3.14926 -1.59804
upperneck 22.4284 -5.28036 5.04125
head 8.85773 -2.10787 1.41308
rclavicle 2.5345e-015 9.54166e-015
rhumerus -54.7789 9.03382 -95.6777
rradius 56.0387
rwrist 1.61212
rhand 0.778874 -44.441
rfingers 7.12502
rthumb 26.3362 -72.6324
lclavicle 2.5345e-015 9.54166e-015
lhumerus -45.3385 -5.65331 91.1145
lradius 59.295
lwrist 33.8607
lhand -17.3519 -22.7183
lfingers 7.12502
lthumb 8.89577 7.07415
rfemur 6.09914 3.48561 15.9023
rtibia -7.88494
rfoot -11.0005 -11.8072
rtoes 2.56125
lfemur 9.66618 -9.58838 -12.4572
ltibia -9.98548
lfoot -9.68304 21.141
ltoes -8.81674
107
root -0.605588 18.2014 5.4806 4.43014 -3.91787 -2.38269
lowerback -1.88308 1.88931 0.774073
upperback -3.72153 2.515 -0.232057
thorax -2.72129 1.23224 -0.683593
lowerneck -10.1714 -3.21388 -1.59098
upperneck 22.4302 -5.37236 5.04208
head 8.86359 -2.15006 1.40196
rclavicle -7.23079e-015 -1.19271e-015
rhumerus -55.4762 10.002 -96.3155
rradius 58.8578
rwrist -0.861242
rhand -0.57695 -44.3048
rfingers 7.12502
rthumb 25.0376 -72.6838
lclavicle -7.23079e-015 -1.19271e-015
lhumerus -44.8022 -5.76757 90.6214
lradius 63.3338
lwrist 37.3202
lhand -18.7633 -22.5125
lfingers 7.12502
lthumb 7.53361 7.33338
rfemur 6.04433 3.48762 15.9123
rtibia -7.83604
rfoot -11.0587 -11.7794
rtoes 2.85727
lfemur 9.64292 -9.58936 -12.4245
ltibia -9.99932
lfoot -9.68858 21.1558
ltoes -8.85558
108
root -0.608733 18.2021 5.47303 4.44868 -3.93384 -2.37202
lowerback -1.86567 1.92457 0.62092
upperback -3.71683 2.56307 -0.196394
thorax -2.73363 1.26092 -0.562403
lowerneck -10.0529 -3.2684 -1.80727
upperneck 22.2989 -5.44511 5.2397
head 8.81095 -2.18669 1.49882
rclavicle -3.67752e-015 1.74931e-014
rhumerus -56.1391 11.0311 -96.8396
rradius 61.9486
rwrist -2.99213
rhand -2.00662 -44.0418
rfingers 7.12502
rthumb 23.667 -72.6049
lclavicle -3.67752e-015 1.74931e-014
lhumerus -44.0309 -5.58729 90.0947
lradius 67.3083
lwrist 40.5296
lhand -20.13 -22.6406
lfingers 7.12502
lthumb 6.21427 7.24827
rfemur 5.96725 3.50136 15.8988
rtibia -7.79184
rfoot -11.1196 -11.7499
rtoes 3.3463
lfemur 9.59043 -9.57499 -12.4145
ltibia -9.98555
lfoot -9.67321 21.1958
ltoes -9.04772
109
root -0.611831 18.2041 5.46489 4.48304 -3.92425 -2.36536
lowerback -1.92979 1.95321 0.487072
upperback -3.6778 2.60118 -0.182125
thorax -2.66332 1.28423 -0.469968
lowerneck -9.93107 -3.30141 -1.945
upperneck 22.1181 -5.5027 5.44965
head 8.73883 -2.20951 1.58811
rclavicle 2.87492e-014 -1.59028e-015
rhumerus -56.5077 11.768 -96.9089
rradius 65.1189
rwrist -3.17654
rhand -0.287725 -43.9773
rfingers 7.12502
rthumb 25.3148 -72.3173
lclavicle 2.87492e-014 -1.59028e-015
lhumerus -43.0241 -5.27044 89.4943
lradius 71.2273
lwrist 43.3896
lhand -21.4415 -22.7885
lfingers 7.12502
lthumb 4.94804 7.13373
rfemur 5.86187 3.48701 15.9053
rtibia -7.73161
rfoot -11.1341 -11.7636
rtoes 3.41042
lfemur 9.51027 -9.58266 -12.4005
ltibia -9.97296
lfoot -9.66181 21.2248
ltoes -8.94062
110
root -0.614437 18.2053 5.45833 4.48177 -3.90615 -2.3559
lowerback -2.01688 1.96551 0.377734
upperback -3.59621 2.6172 -0.179398
thorax -2.53495 1.29582 -0.400992
lowerneck -9.93761 -3.30467 -1.94491
upperneck 22.0317 -5.51239 5.49685
head 8.71244 -2.2107 1.60262
rclavicle -4.5969e-015 1.27222e-014
rhumerus -56.8494 12.8826 -97.4526
rradius 68.4792
rwrist -5.55396
rhand -2.55707 -44.5119
rfingers 7.12502
rthumb 23.139 -73.1422
lclavicle -4.5969e-015 1.27222e-014
lhumerus -41.8582 -4.93333 88.8318
lradius 75.2204
lwrist 46.1672
lhand -22.7415 -22.7982
lfingers 7.12502
lthumb 3.6927 7.14955
rfemur 5.79565 3.46663 15.9111
rtibia -7.64754
rfoot -11.1613 -11.7522
rtoes 3.4891
lfemur 9.4874 -9.60577 -12.3814
ltibia -9.98065
lfoot -9.71002 21.2091
ltoes -8.49472
111
root -0.61592 18.2061 5.45182 4.47747 -3.93408 -2.41028
lowerback -2.06627 1.96342 0.367876
upperback -3.53815 2.61445 -0.159555
thorax -2.44869 1.29537 -0.371898
lowerneck -9.9208 -3.28332 -1.95665
upperneck 21.9827 -5.48671 5.53849
head 8.69301 -2.19665 1.62153
rclavicle 3.17807e-014 -4.77083e-015
rhumerus -56.907 13.8198 -97.588
rradius 71.5589
rwrist -6.75789
rhand -2.96202 -44.4088
rfingers 7.12502
rthumb 22.7504 -73.0874
lclavicle 3.17807e-014 -4.77083e-015
lhumerus -40.5809 -4.62853 88.133
lradius 79.12
lwrist 48.8398
lhand -23.9159 -22.9445
lfingers 7.12502
lthumb 2.55857 7.01989
rfemur 5.74129 3.49768 15.9755
rtibia -7.58433
rfoot -11.1649 -11.7369
rtoes 3.60665
lfemur 9.49112 -9.58145 -12.2926
ltibia -9.99418
lfoot -9.76145 21.1898
ltoes -8.27607
112
root -0.617666 18.2077 5.44259 4.51544 -4.01402 -2.4726
lowerback -2.07338 1.9525 0.362138
upperback -3.54616 2.6 -0.150852
thorax -2.45373 1.28838 -0.359702
lowerneck -9.88021 -3.24646 -1.92555
upperneck 22.0199 -5.46028 5.6099
head 8.69841 -2.17469 1.64404
rclavicle -1.3418e-015 -3.57812e-015
rhumerus -56.8162 14.606 -97.5012
rradius 74.4558
rwrist -7.4396
rhand -2.42565 -43.6193
rfingers 7.12502
rthumb 23.2651 -72.2338
lclavicle -1.3418e-015 -3.57812e-015
lhumerus -39.1759 -4.29326 87.3782
lradius 82.6507
lwrist 50.9657
lhand -24.6834 -23.2529
lfingers 7.12502
lthumb 1.81732 6.71906
rfemur 5.62667 3.57759 16.0458
rtibia -7.54298
rfoot -11.1134 -11.7583
rtoes 3.39799
lfemur 9.45596 -9.49821 -12.2022
ltibia -10.0254
lfoot -9.74141 21.1848
ltoes -8.36289
113
root -0.620217 18.2082 5.43214 4.52052 -4.07588 -2.45303
lowerback -2.03884 1.92392 0.256537
upperback -3.55543 2.56218 -0.160307
thorax -2.48713 1.27185 -0.312019
lowerneck -9.86287 -3.20702 -1.82559
upperneck 22.0919 -5.42634 5.59812
head 8.71536 -2.15077 1.62746
rclavicle -1.22253e-014 -7.15625e-015
rhumerus -56.7041 15.4601 -97.5004
rradius 77.4467
rwrist -8.66969
rhand -2.37213 -42.9621
rfingers 7.12502
rthumb 23.3164 -71.5701
lclavicle -1.22253e-014 -7.15625e-015
lhumerus -37.6461 -3.87969 86.6263
lradius 85.9397
lwrist 52.6277
lhand -25.2034 -23.3559
lfingers 7.12502
lthumb 1.31512 6.61977
rfemur 5.55016 3.6357 16.0323
rtibia -7.51397
rfoot -11.0796 -11.7783
rtoes 3.2092
lfemur 9.44507 -9.41313 -12.2146
ltibia -10.0644
lfoot -9.63923 21.1789
ltoes -8.74985
114
root -0.62163 18.208 5.4224 4.47304 -4.13019 -2.45723
lowerback -1.98832 1.90372 0.201428
upperback -3.51941 2.53565 -0.151613
thorax -2.48122 1.26012 -0.273416
lowerneck -9.85174 -3.19108 -1.74996
upperneck 22.0983 -5.40601 5.54152
head 8.71093 -2.14091 1.59797
rclavicle -2.09966e-014 -3.18055e-015
rhumerus -56.5019 16.3068 -97.4943
rradius 80.521
rwrist -10.1848
rhand -2.76802 -42.5321
rfingers 7.12502
rthumb 22.9366 -71.1877
lclavicle -2.09966e-014 -3.18055e-015
lhumerus -36.029 -3.51021 85.9292
lradius 89.2245
lwrist 54.3313
lhand -25.8919 -23.3373
lfingers 7.12502
lthumb 0.65012 6.64149
rfemur 5.59238 3.69136 16.051
rtibia -7.59034
rfoot -11.0419 -11.8332
rtoes 3.11848
lfemur 9.4602 -9.30158 -12.2093
ltibia -10.0358
lfoot -9.56614 21.1454
ltoes -9.0929
115
root -0.622189 18.2086 5.41459 4.44411 -4.23293 -2.52819
lowerback -1.96016 1.9089 0.241473
upperback -3.48222 2.54277 -0.134594
thorax -2.45766 1.26298 -0.27852
lowerneck -9.88904 -3.19489 -1.6877
upperneck 22.1393 -5.41549 5.4955
head 8.72934 -2.14349 1.57048
rclavicle -2.80038e-014 7.55382e-015
rhumerus -56.1203 16.9968 -97.34
rradius 83.6138
rwrist -12.131
rhand -2.80265 -42.4829
rfingers 7.12502
rthumb 22.9034 -71.1426
lclavicle -2.80038e-014 7.55382e-015
lhumerus -34.3317 -3.19408 85.2621
lradius 92.3407
lwrist 55.9958
lhand -26.6701 -23.5014
lfingers 7.12502
lthumb -0.101463 6.47831
rfemur 5.63391 3.7985 16.1382
rtibia -7.69695
rfoot -10.982 -11.9044
rtoes 2.95007
lfemur 9.46043 -9.20258 -12.1393
ltibia -9.98467
lfoot -9.54924 21.1577
ltoes -9.08075
116
root -0.641926 18.2034 5.42193 4.19975 -3.8075 -2.52447
lowerback -1.95749 1.71602 -0.0537144
upperback -3.35917 2.2875 -0.0707308
thorax -2.34775 1.14371 -0.0455072
lowerneck -9.89371 -3.18349 -1.59942
upperneck 22.1649 -5.40716 5.44679
head 8.73488 -2.1368 1.54006
rclavicle -1.23992e-014 -7.95139e-015
rhumerus -55.5966 17.6817 -97.0714
rradius 86.6922
rwrist -14.6689
rhand -1.81746 -43.5522
rfingers 7.12502
rthumb 23.8485 -72.0918
lclavicle -1.23992e-014 -7.95139e-015
lhumerus -32.5538 -2.86214 84.6028
lradius 95.1382
lwrist 57.4654
lhand -27.345 -23.8475
lfingers 7.12502
lthumb -0.753315 6.13089
rfemur 6.11481 3.38751 16.2128
rtibia -7.73312
rfoot -11.1569 -11.7766
rtoes 3.23413
lfemur 9.65483 -9.65787 -12.1376
ltibia -9.9601
lfoot -9.42597 21.2181
ltoes -9.64798
